<svg width="512" height="512" viewBox="0 0 512 512" fill="none" xmlns="http://www.w3.org/2000/svg">
<path fill-rule="evenodd" clip-rule="evenodd" d="M211.393 114.499C210.429 115.061 205.222 121.011 199.823 127.723C179.224 153.326 179.008 153.798 182.536 165.404L183.648 169.064C184.3 171.211 184.021 173.533 182.879 175.464L178.638 182.633C172.177 193.551 171.36 197.141 174.121 202.475C175.773 205.666 180.229 208.444 183.699 208.444C187.039 208.444 222.67 198.478 225.16 196.847C227.906 195.049 229.662 191.284 229.662 187.197C229.662 185.465 226.283 173.841 222.154 161.367C218.025 148.893 214.646 137.904 214.646 136.948C214.646 135.993 216.448 132.95 218.65 130.186C223.68 123.875 224.156 118.745 220.017 115.493C217.154 113.242 214.148 112.896 211.393 114.499ZM207.385 168.123C208.877 172.618 210.126 176.789 210.981 179.756C211.771 182.499 210.574 184.804 207.822 185.563C204.976 186.348 201.288 187.311 198.441 188.045C195.702 188.75 194.703 187.585 196.116 185.135L196.197 184.996L196.385 184.672L196.494 184.484C196.617 184.273 196.744 184.057 196.873 183.838C197.141 183.385 197.42 182.916 197.709 182.437C198.261 181.521 198.788 180.534 199.266 179.573C200.99 176.11 201.373 172.25 200.312 168.53C200.001 167.44 199.652 166.279 199.284 165.12C196.952 157.781 196.949 157.71 198.867 155.079C200.213 153.23 202.068 153.79 202.915 155.914C204.065 158.798 205.752 163.206 207.385 168.123Z" fill="#38BDF8"/>
<path d="M150.093 163.369C153.226 158.727 156.694 154.143 157.8 153.179C160.574 150.765 165.47 150.963 168.284 153.603C172.223 157.302 171.415 161.454 164.94 170.782C158.068 180.68 157.189 181.436 152.546 181.436C148.34 181.436 145.896 179.289 144.998 174.807C144.497 172.304 145.337 170.416 150.093 163.369Z" fill="#38BDF8"/>
<path d="M416.226 110.208C416.576 108.397 417.812 106.13 418.973 105.167C420.133 104.204 422.681 103.416 424.636 103.416C427.633 103.416 429.103 104.331 434.034 109.257C439.216 114.435 439.88 115.556 439.88 119.105C439.88 123.743 437.864 126.076 433.018 127.044C430.029 127.641 429.265 127.164 422.691 120.593C416.086 113.994 415.634 113.268 416.226 110.208Z" fill="#38BDF8"/>
<path d="M260.066 334.681C261.459 335.686 261.923 337.479 261.923 339.196V344.811C261.923 347.155 261.364 349.468 260.223 351.515C255.929 359.203 253.482 361.484 249.526 361.484C245.841 361.484 241.674 357.502 241.674 353.981C241.674 350.727 249.151 336.963 252.004 334.966C254.301 333.358 257.386 332.746 260.066 334.681Z" fill="#38BDF8"/>
<path fill-rule="evenodd" clip-rule="evenodd" d="M211.393 114.499C210.429 115.061 205.222 121.011 199.823 127.723C179.224 153.326 179.008 153.798 182.536 165.404L183.648 169.064C184.3 171.211 184.021 173.533 182.879 175.464L178.638 182.633C172.177 193.551 171.36 197.141 174.121 202.475C175.773 205.666 180.229 208.444 183.699 208.444C187.039 208.444 222.67 198.478 225.16 196.847C227.906 195.049 229.662 191.284 229.662 187.197C229.662 185.465 226.283 173.841 222.154 161.367C218.025 148.893 214.646 137.904 214.646 136.948C214.646 135.993 216.448 132.95 218.65 130.186C223.68 123.875 224.156 118.745 220.017 115.493C217.154 113.242 214.148 112.896 211.393 114.499ZM150.093 163.369C153.226 158.727 156.694 154.143 157.8 153.179C160.574 150.765 165.47 150.963 168.284 153.603C172.223 157.302 171.415 161.454 164.94 170.782C158.068 180.68 157.189 181.436 152.546 181.436C148.34 181.436 145.896 179.289 144.998 174.807C144.497 172.304 145.337 170.416 150.093 163.369ZM207.385 168.123C208.877 172.618 210.126 176.789 210.981 179.756C211.771 182.499 210.574 184.804 207.822 185.563C204.976 186.348 201.288 187.311 198.441 188.045C195.702 188.75 194.703 187.585 196.116 185.135L196.197 184.996L196.385 184.672L196.494 184.484C196.617 184.273 196.744 184.057 196.873 183.838C197.141 183.385 197.42 182.916 197.709 182.437C198.261 181.521 198.788 180.534 199.266 179.573C200.99 176.11 201.373 172.25 200.312 168.53C200.001 167.44 199.652 166.279 199.284 165.12C196.952 157.781 196.949 157.71 198.867 155.079C200.213 153.23 202.068 153.79 202.915 155.914C204.065 158.798 205.752 163.206 207.385 168.123Z" fill="#38BDF8"/>
<path fill-rule="evenodd" clip-rule="evenodd" d="M210.981 179.756C210.126 176.789 208.877 172.618 207.385 168.123C205.752 163.206 204.065 158.798 202.915 155.914C202.068 153.79 200.213 153.23 198.867 155.079C196.949 157.71 196.952 157.781 199.284 165.12C199.652 166.279 200.001 167.44 200.312 168.53C201.373 172.25 200.99 176.11 199.266 179.573C198.788 180.534 198.261 181.521 197.709 182.437C197.42 182.916 197.141 183.385 196.873 183.838C196.744 184.057 196.617 184.273 196.494 184.484L196.385 184.672L196.197 184.996L196.116 185.135C194.703 187.585 195.702 188.75 198.441 188.045C201.288 187.311 204.976 186.348 207.822 185.563C210.574 184.804 211.771 182.499 210.981 179.756ZM199.823 127.723C205.222 121.011 210.429 115.061 211.393 114.499C214.148 112.896 217.154 113.242 220.017 115.493C224.156 118.745 223.68 123.875 218.65 130.186C216.448 132.95 214.646 135.993 214.646 136.948C214.646 137.904 218.025 148.893 222.154 161.367C226.283 173.841 229.662 185.465 229.662 187.197C229.662 191.284 227.906 195.049 225.16 196.847C222.67 198.478 187.039 208.444 183.699 208.444C180.229 208.444 175.773 205.666 174.121 202.475C171.36 197.141 172.177 193.551 178.638 182.633L182.879 175.464C184.021 173.533 184.3 171.211 183.648 169.064L182.536 165.404C179.008 153.798 179.224 153.326 199.823 127.723ZM157.8 153.179C156.694 154.143 153.226 158.727 150.093 163.369C145.337 170.416 144.497 172.304 144.998 174.807C145.896 179.289 148.34 181.436 152.546 181.436C157.189 181.436 158.068 180.68 164.94 170.782C171.415 161.454 172.223 157.302 168.284 153.603C165.47 150.963 160.574 150.765 157.8 153.179ZM416.226 110.208C416.576 108.397 417.812 106.13 418.973 105.167C420.133 104.204 422.681 103.416 424.636 103.416C427.633 103.416 429.103 104.331 434.034 109.257C439.216 114.435 439.88 115.556 439.88 119.105C439.88 123.743 437.864 126.076 433.018 127.044C430.029 127.641 429.265 127.164 422.691 120.593C416.086 113.994 415.634 113.268 416.226 110.208ZM261.923 339.196C261.923 337.479 261.459 335.686 260.066 334.681C257.386 332.746 254.301 333.358 252.004 334.966C249.151 336.963 241.674 350.727 241.674 353.981C241.674 357.502 245.841 361.484 249.526 361.484C253.482 361.484 255.929 359.203 260.223 351.515C261.364 349.468 261.923 347.155 261.923 344.811V339.196Z" fill="#38BDF8"/>
<path fill-rule="evenodd" clip-rule="evenodd" d="M256 512C397.385 512 512 397.385 512 256C512 114.615 397.385 0 256 0C114.615 0 0 114.615 0 256C0 397.385 114.615 512 256 512ZM118.814 376.94C116.432 377.853 76.7645 408.608 73.5623 411.944C117.581 463.392 182.982 496 256 496C305.582 496 351.653 480.965 389.901 455.204C389.247 454.653 385.833 451.864 382.32 449.064C382.167 448.942 382.017 448.822 381.869 448.704L381.387 448.319C377.913 445.539 375.762 443.818 373.465 443.591C369.733 443.223 365.613 446.792 354.803 456.157C354.234 456.65 353.623 457.18 353.016 457.706C343.498 465.943 341.194 467.473 338.32 467.473C334.281 467.473 269.159 445.532 264.308 442.538C261.062 440.533 258.719 437.935 257.016 434.103C255.406 430.312 254.218 425.015 252.921 417.021C250.869 404.374 250.098 401.599 248.054 399.495L247.981 399.42C246.475 397.869 244.404 396.993 242.242 396.993H198.506C196.58 396.993 194.757 396.126 193.542 394.632C190.907 391.391 191.06 386.364 193.875 383.737C196.028 381.729 197.297 381.623 222.655 381.338C252.039 381.008 252.295 381.053 259.528 387.854C264.621 392.641 265.738 395.608 268.277 411.324C270.22 423.352 271.013 426.209 272.915 428.009C274.342 429.36 286.65 434.061 305.487 440.448L330.513 448.935C333.775 450.041 337.379 449.369 340.023 447.161C342.365 445.204 347.991 440.495 352.527 436.697C361.234 429.404 365.578 427.466 373.209 427.466C379.811 427.466 383.828 429.448 394.335 437.893L403.535 445.311C416.67 435.06 428.711 423.471 439.453 410.75C439.453 410.75 435.737 407.672 431.897 405.05C418.347 395.799 415.855 390.552 415.855 371.274V359.454H405.845C400.339 359.454 395.834 359.722 395.834 360.049C395.834 360.376 396.765 363.706 397.902 367.447C399.592 373.004 399.779 374.961 398.926 378.125C397.374 383.887 386.99 398.435 382.821 400.688C378.55 402.998 371.822 402.582 367.941 399.769C366.49 398.717 360.096 390.145 353.732 380.721L342.162 363.585L324.347 378.011C305.82 393.016 301.74 395.256 295.396 393.909C290.877 392.95 275.874 384.634 274.696 382.436C272.045 377.488 275.835 370.456 281.153 370.456C282.545 370.456 287.001 372.096 291.055 374.099L298.426 377.744L301.61 375.392C303.361 374.098 304.578 372.48 304.316 371.796C303.584 369.889 281.986 341.288 269.025 324.697C268.487 324.007 267.911 323.261 267.314 322.486C264.794 319.218 261.868 315.423 259.531 313.07C257.639 311.746 254.099 311.471 238.966 311.471H220.687L218.253 316.27C214.236 324.189 210.52 327.019 199.221 330.756L194.271 332.394C190.93 333.499 188.047 335.675 186.068 338.585L183.377 342.541C173.693 356.773 169.783 359.409 149.978 365.052C142.877 367.075 136.866 368.912 136.622 369.134C136.379 369.357 138.842 372.228 142.097 375.514L148.014 381.49H159.197C168.677 381.49 170.735 381.778 172.719 383.383C176.028 386.06 176.028 392.923 172.719 395.6C170.656 397.268 168.606 397.493 155.445 397.493H147.304C142.964 397.493 138.809 395.73 135.794 392.608L130.339 386.958C124.261 380.662 119.621 376.63 118.814 376.94ZM272.344 302.388C273.466 303.524 277.055 308.007 281.853 314.215L296.731 333.824C308.018 348.977 317.703 361.379 318.254 361.384C318.804 361.39 321.201 359.714 323.578 357.659L327.902 353.924L312.423 326.481L310.035 322.301L297.564 298.547C296.36 296.253 295.429 293.495 296.848 291.328C299.36 287.492 305.509 286.119 309.047 289.715C309.719 290.399 311.995 294.575 315.274 300.594C317.935 305.476 321.256 311.573 324.923 318.008C336.313 338 341.424 344.095 342.688 343.765C347.088 342.615 349.715 345.382 362.774 364.915C369.959 375.664 376.011 384.458 376.222 384.458C376.433 384.458 378.043 382.221 379.799 379.485L382.993 374.514L379.271 363.009C376.017 352.951 375.699 351.141 376.749 348.608C378.64 344.048 381.316 343.451 399.866 343.451C416.635 343.451 416.823 343.427 417.303 341.201C417.571 339.962 418.896 329.985 420.28 318.736C420.441 317.438 420.59 316.121 420.74 314.793C422.002 303.651 423.347 291.778 432.029 283.941C438.13 278.433 442.049 277.089 470.205 270.842L495.83 265.105C495.943 262.084 496 259.049 496 256C496 153.834 432.163 66.5785 342.2 31.9451C341.237 33.4053 338.18 41.5159 335.024 51.0505C328.294 71.3848 325.729 75.882 318.908 79.2999C316.897 80.3081 307.462 83.7141 297.943 86.8699C285.298 91.061 280.264 93.1866 279.261 94.76C278.506 95.9453 277.006 101.315 275.928 106.693C274.159 115.518 274.126 116.426 275.59 115.995C282.674 113.91 294.102 111.419 296.575 111.419C298.614 111.419 300.239 112.244 301.598 113.97C302.703 115.373 306.602 125.5 310.263 136.476C312.251 142.438 314.262 147.812 315.683 151.476C316.852 154.489 319.763 156.147 322.764 154.95C325.488 153.863 328.319 152.44 329.034 151.619C329.844 150.69 331.966 145.503 333.75 140.095C337.335 129.222 337.85 128.68 348.701 124.374L354.523 122.062L357.364 95.111C360.587 64.525 360.957 63.4057 367.879 63.4057C372.865 63.4057 375.814 66.1394 375.814 70.7616C375.814 72.6072 374.89 82.5638 373.762 92.8884C372.632 103.213 371.845 112.251 372.01 112.973C372.223 113.904 375.951 112.715 384.823 108.886C398.508 102.98 402.322 102.353 405.656 105.456C407.722 107.379 407.847 108.351 407.847 122.526C407.847 130.792 405.953 136.505 405.423 137.493C404.895 138.48 398.704 145.43 390.423 151.619L377.407 162.093C375.52 163.612 374.423 165.904 374.423 168.326V171.996C374.423 176.67 373.431 179.423 372.197 181.696C370.797 184.275 368.769 186.469 366.128 187.751C362.242 189.638 354.847 192.447 341.655 195.133C328.234 197.053 288.178 202.298 288.178 202.298L287.14 202.414C279.979 203.218 273.521 198.067 272.711 190.906L271.646 181.498C271.391 179.245 269.31 177.659 267.07 178.009C265.012 178.332 263.549 180.184 263.714 182.261L264.555 192.894C265.074 199.465 261.379 205.643 255.37 208.352C247.198 212.037 236.6 216.917 233.923 218.628C233.226 219.072 231.726 219.831 229.937 220.736L229.936 220.736L229.931 220.739C226.931 222.256 223.114 224.186 220.894 225.744C215.861 229.279 209.938 233.438 205.416 236.276C202.134 238.336 198.204 239.122 194.413 238.321C193.102 238.044 191.717 237.731 190.422 237.401C188.362 236.875 186.37 236.5 184.83 236.249C182.423 235.857 181.963 236.161 182.759 238.673C183.555 241.185 184.861 245.097 186.513 249.288C187.693 252.28 188.782 255.373 189.649 257.953C190.971 261.885 190.566 266.175 188.512 269.78C186.82 272.747 184.572 276.521 182.115 280.199C174.776 291.184 171.987 294.583 169.885 295.11C167.887 295.611 161.51 293.916 145.967 288.751C134.311 284.878 124.327 281.992 123.783 282.337C122.149 283.371 98.3629 331.613 98.8555 332.894C99.1047 333.545 103.36 336.741 108.31 339.996C114.459 344.04 118.168 347.269 120.02 350.194C121.51 352.549 123.115 354.714 123.588 355.005C124.881 355.804 156.605 346.547 160.356 344.276C162.254 343.127 166.661 337.825 170.867 331.636L175.115 325.381C177.058 322.52 179.876 320.366 183.146 319.241L189.02 317.221C195.022 315.157 200.578 312.931 201.367 312.276C202.156 311.622 204.339 308.039 206.214 304.317C206.651 303.449 207.175 302.562 207.722 301.711C209.969 298.217 213.878 296.279 218.025 296.024C222.452 295.753 228.799 295.467 235.921 295.467C262.132 295.467 266.28 296.255 272.344 302.388ZM313.319 62.9396C314.139 61.6893 317.459 52.7509 320.698 43.0763L326.263 26.4491C304.04 19.6553 280.447 16 256 16C123.452 16 16 123.452 16 256C16 309.306 33.3787 358.553 62.7793 398.384C78.5 387.5 94.555 375.441 108.454 363.831C109.882 362.639 104.851 357.401 97.5321 352.462C84.6707 343.783 82.5085 340.758 82.5085 331.443C82.5085 327.146 84.1812 323.196 96.0155 299.556C110.514 270.593 111.862 268.756 120.261 266.523C125.389 265.16 125.868 265.261 146.914 272.161C156.183 275.199 164.121 277.299 164.551 276.824C164.982 276.35 167.372 272.887 169.863 269.129L172.045 265.836C173.512 263.622 173.785 260.825 172.774 258.369L169.377 250.124C163.73 236.418 163.013 230.956 166.154 225.583C168.299 221.913 172.102 218.038 178.104 218.446C179.523 218.446 184.528 219.41 189.228 220.589L190.758 220.972C195.217 222.09 199.941 221.236 203.726 218.628L208.131 215.592C220.923 207.499 225.16 205.998 225.16 205.998L246.126 196.479C249.203 195.081 251.071 191.901 250.792 188.532L250.196 181.354C249.485 172.78 255.681 165.178 264.221 164.145L266.711 163.844C275.38 162.796 283.288 168.893 284.481 177.544L285.41 184.283C285.698 186.372 287.525 187.878 289.626 187.705C303.608 186.55 352.703 182.006 358.802 174.701C359.577 173.844 359.812 172.882 359.8 168.631L359.8 168.587L359.797 166.867C359.797 164.296 359.9 161.759 360.068 159.723C360.3 156.894 361.841 154.538 364.004 152.699C367.026 150.13 371.803 146.172 376.776 142.455C391.672 131.322 391.83 131.163 391.83 127.313C391.83 126.212 391.8 125.222 391.752 124.525C391.703 123.815 391.254 123.629 390.6 123.909C387.906 125.061 379.982 128.456 370.885 132.384L350.438 141.211L347.191 150.572C343.028 162.569 338.945 166.635 326.836 170.847C323.056 172.162 318.147 173.357 314.278 174.205C310.584 175.016 306.901 172.989 305.473 169.487L295.731 145.59C295.731 145.291 294.533 141.374 293.071 136.886L290.411 128.725L276.819 132.148C263.981 135.38 263.046 135.484 259.984 134.026C258.009 133.085 256.488 131.468 256.091 129.89C255.137 126.09 261.407 94.965 264.411 88.5893C268.063 80.8372 272.062 78.4576 293.334 71.3727C307.327 66.7126 312.191 64.66 313.319 62.9396ZM449.719 397.707L441.884 392.169C437.756 389.242 433.821 385.748 433.14 384.403C432.37 382.884 431.896 377.556 431.887 370.336L431.872 358.713L443.133 357.477C449.328 356.797 458.9 355.694 464.406 355.025C468.922 354.477 473.621 354.031 475.16 353.966C468.211 369.489 459.66 384.139 449.719 397.707ZM439.504 301.701C441.647 295.823 445.913 292.907 455.692 290.63L463.905 288.72V291.944C463.905 296.446 465.777 301.328 467.949 302.49C471.103 304.177 475.439 303.607 477.695 301.208C479.356 299.441 479.885 297.434 480.121 292.006L480.423 285.065L485.428 283.883C487.156 283.475 494.608 282 494.608 282C492.553 301.081 488.261 319.492 482 336.965C476.744 337.965 434.449 342.359 434.041 341.951C433.198 341.109 437.979 305.881 439.504 301.701Z" fill="#38BDF8"/>
</svg>
